<svg xmlns="http://www.w3.org/2000/svg" width="30.344" height="30" viewBox="0 0 30.344 30">
  <defs>
    <style>
      .cls-1 {
        fill: #4463a6;
        fill-rule: evenodd;
      }
    </style>
  </defs>
  <path id="FaceBook" class="cls-1" d="M641.171,70A15,15,0,1,1,626,85,15.086,15.086,0,0,1,641.171,70Zm-3.314,14.9h1.272v6.2h2.823v-6.2h1.994l0.542-2.3h-2.653a1.714,1.714,0,0,1,.186-1.316,1.553,1.553,0,0,1,1.033-.325,2.8,2.8,0,0,1,1.333.5l0.572-2.029a8.308,8.308,0,0,0-2.36-.519,4.283,4.283,0,0,0-2,.4,2.278,2.278,0,0,0-1.069,1.17,3.829,3.829,0,0,0-.327,1.814v0.3H637.9Z" transform="translate(-626 -70)"/>
</svg>
