<svg xmlns="http://www.w3.org/2000/svg" width="30.343" height="30" viewBox="0 0 30.343 30">
  <defs>
    <style>
      .cls-1 {
        fill: #5d99c3;
        fill-rule: evenodd;
      }
    </style>
  </defs>
  <path id="vk" class="cls-1" d="M679.1,70a15,15,0,1,1-15.171,15A15.086,15.086,0,0,1,679.1,70Zm2.8,14.671V84.607a2.373,2.373,0,0,0,1.468-2.421A2.739,2.739,0,0,0,681,79.471c-0.3-.044-3.507-0.1-4.766-0.1a0.865,0.865,0,0,0-.936.983V89.7a1.024,1.024,0,0,0,.936.927h3.343c-0.894,0,4.443.265,4.262-3.281A2.774,2.774,0,0,0,681.9,84.67Zm-2.659-.685c-0.477.025-1.088,0.077-1.088,0.077V81.249s0.284-.02.948,0a1.216,1.216,0,0,1,1.4,1.437A1.253,1.253,0,0,1,679.238,83.985Zm0.334,4.764H678.15V85.937s0.864-.014,1.422,0A1.382,1.382,0,0,1,681,87.343,1.346,1.346,0,0,1,679.572,88.749Z" transform="translate(-663.938 -70)"/>
</svg>
