<svg xmlns="http://www.w3.org/2000/svg" width="30.344" height="30" viewBox="0 0 30.344 30">
  <defs>
    <style>
      .cls-1 {
        fill: #6ac4d9;
        fill-rule: evenodd;
      }
    </style>
  </defs>
  <path id="Twitter" class="cls-1" d="M717.552,70a15,15,0,1,1-15.171,15A15.087,15.087,0,0,1,717.552,70Zm-6.98,17.04a13.266,13.266,0,0,0,2.625.612A1.491,1.491,0,0,0,714.932,87a0.311,0.311,0,0,0-.084-0.482s-2.942-.324-2.718-0.835c0,0-.014-0.288.392-0.223,0,0,.568-1.031.343-1.162,0,0-.35-0.289-0.07-0.315,0,0,.825.1,1.091,0.17,0,0,.182-0.062.014-0.18a0.9,0.9,0,0,1-.392-0.436s0.1-.223.546-0.039c0,0,.25-0.253.124-0.383,0,0-.378-0.21-0.2-0.38,0,0,.854-1,1.805.58,0,0,.239.3,0.267,0.013,0,0,1.164-3.1,2.691-3.35a0.869,0.869,0,0,0,.588-0.053A0.779,0.779,0,0,1,719.9,79.9a0.229,0.229,0,0,0,.308.079s0.6-.223.421,0.144a2.776,2.776,0,0,1-.787.609c-0.211.012-.168,0.278,0.014,0.3,0,0,2.52.17,2.52,1.926,0,0,.147.417,0.623-0.015a5.333,5.333,0,0,1,.9-0.45s0.2-.118.168,0.158a3.287,3.287,0,0,1-1.051,1.075s-0.322.38,0.14,0.3a2.97,2.97,0,0,0,.66-0.2s0.546-.249.294,0.2a7.216,7.216,0,0,1-1.4.7,0.212,0.212,0,0,0-.168.183s-0.154,4.785-6.571,4.785a7.883,7.883,0,0,1-5.315-2.311S710.25,86.973,710.572,87.039Z" transform="translate(-702.375 -70)"/>
</svg>
